Coordinates
version=1
nRows=6
nColumns=46
inDegrees=yes

Units are S.I. units (second, meters, Newtons, ...)
Angles are in degrees.

endheader
time	pelvis_tilt	pelvis_list	pelvis_rotation	pelvis_tx	pelvis_ty	pelvis_tz	bb_angle	bb_tx	bb_ty	bb_tz	hip_flexion_r	hip_adduction_r	hip_rotation_r	knee_angle_r	knee_angle_r_beta	ankle_angle_r	subtalar_angle_r	mtp_angle_r	crank_angle_r	hip_flexion_l	hip_adduction_l	hip_rotation_l	knee_angle_l	knee_angle_l_beta	ankle_angle_l	subtalar_angle_l	mtp_angle_l	crank_angle_l	lumbar_extension	lumbar_bending	lumbar_rotation	arm_flex_r	arm_add_r	arm_rot_r	elbow_flex_r	pro_sup_r	wrist_flex_r	wrist_dev_r	arm_flex_l	arm_add_l	arm_rot_l	elbow_flex_l	pro_sup_l	wrist_flex_l	wrist_dev_l
      2.50000000	    -13.52005457	      7.01663068	      7.16491106	      0.18800203	      1.06000284	     -0.23288464	      0.00000000	      0.50000000	      0.00000000	      0.25000000	     46.77520363	    -10.76257321	      9.21905620	     38.90087836	      0.67894841	     -8.47293492	    -10.64001537	      0.00000000	      0.00000000	     67.90731330	      1.46215339	      0.84674983	    108.45719512	      1.89293515	      6.42972691	     -2.50764262	      0.00000000	      0.00000000	    -65.28337132	      4.81076185	     -7.40495811	     80.85798013	    -10.91230003	     16.73124854	     71.67798446	     46.11489287	      0.00000000	      0.00000000	     80.16658377	    -23.63044261	     20.46086488	     70.95234057	     45.71921698	      0.00000000	      0.00000000
      2.50500000	    -13.44394600	      7.02964658	      7.37726103	      0.18741241	      1.06020800	     -0.23295926	      0.00000000	      0.50000000	      0.00000000	      0.25000000	     46.04635909	    -10.93458243	      8.98226270	     38.01305482	      0.66345297	    -10.09193780	    -11.06656454	      0.00000000	      0.00000000	     68.60841265	      1.65715010	      1.06904127	    109.16675336	      1.90531928	      7.03797542	     -1.90353820	      0.00000000	      0.00000000	    -65.13635826	      4.42015504	     -7.08031971	     80.55543024	    -11.90936129	     16.28572864	     71.17468342	     46.17355196	      0.00000000	      0.00000000	     80.92237942	    -22.39301276	     21.74959364	     69.64209123	     45.63152757	      0.00000000	      0.00000000
      2.51000000	    -13.54862232	      7.16941802	      7.62132320	      0.18694677	      1.06029933	     -0.23338023	      0.00000000	      0.50000000	      0.00000000	      0.25000000	     45.54516111	    -11.31192649	      8.74414296	     37.24675053	      0.65007843	    -11.11598938	    -10.63162219	      0.00000000	      0.00000000	     69.45823655	      1.99920380	      1.04579638	    109.79887758	      1.91635193	      7.56632970	     -1.89159814	      0.00000000	      0.00000000	    -64.90536549	      4.12071219	     -7.47696066	     80.28997180	    -12.20596880	     16.19012877	     70.95731499	     46.15312598	      0.00000000	      0.00000000	     81.06252256	    -22.05543643	     21.98211176	     69.62322751	     45.65056147	      0.00000000	      0.00000000
      2.51500000	    -13.58799896	      7.22639596	      7.87623251	      0.18634528	      1.06031778	     -0.23377031	      0.00000000	      0.50000000	      0.00000000	      0.25000000	     45.02743506	    -11.60966499	      8.43489816	     36.56535645	      0.63818586	    -12.25925886	    -10.35419981	      0.00000000	      0.00000000	     70.26130942	      2.30780653	      1.13097023	    110.41210706	      1.92705480	      8.22999342	     -1.90904627	      0.00000000	      0.00000000	    -64.68503510	      3.82523801	     -7.74678707	     80.00929586	    -12.58886386	     16.05626889	     70.60151983	     46.10843901	      0.00000000	      0.00000000	     81.23854750	    -21.61197378	     22.35937068	     69.49861702	     45.66413024	      0.00000000	      0.00000000
      2.52000000	    -13.61982455	      7.23873153	      8.15125314	      0.18563338	      1.06030315	     -0.23420774	      0.00000000	      0.50000000	      0.00000000	      0.25000000	     44.51194344	    -11.87833713	      8.07993419	     35.90180666	      0.62660473	    -13.53447933	    -10.22516462	      0.00000000	      0.00000000	     71.06724523	      2.64625029	      1.32111028	    111.01190747	      1.93752329	      8.72944506	     -1.72940872	      0.00000000	      0.00000000	    -64.46276264	      3.54718360	     -7.89566772	     79.76084555	    -13.06869935	     15.90292490	     70.12985871	     46.05023363	      0.00000000	      0.00000000	     81.49645546	    -21.05622932	     22.91261339	     69.15633086	     45.65586360	      0.00000000	      0.00000000
      2.52500000	    -13.56949559	      7.03498230	      8.32163921	      0.18477869	      1.06011063	     -0.23419222	      0.00000000	      0.50000000	      0.00000000	      0.25000000	     43.94274818	    -11.78890152	      7.81894689	     35.28048657	      0.61576065	    -15.01590365	    -10.82198421	      0.00000000	      0.00000000	     71.87439219	      2.68117241	      1.67584510	    111.63401895	      1.94838119	      9.31534522	     -1.09510326	      0.00000000	      0.00000000	    -64.19807168	      3.14961055	     -7.29386942	     79.59821214	    -14.33010195	     15.82105844	     69.34172115	     46.08889628	      0.00000000	      0.00000000	     82.65620067	    -19.60114972	     24.73159934	     66.62438509	     45.38768318	      0.00000000	      0.00000000
